<?xml version="1.0" encoding="UTF-8"?>
<svg width="28px" height="28px" viewBox="0 0 28 28" version="1.1" xmlns="http://www.w3.org/2000/svg" xmlns:xlink="http://www.w3.org/1999/xlink">
    <!-- Generator: Sketch 43.2 (39069) - http://www.bohemiancoding.com/sketch -->
    <title>icon_search</title>
    <desc>Created with Sketch.</desc>
    <defs></defs>
    <g id="styleguidelines" stroke="none" stroke-width="1" fill="none" fill-rule="evenodd">
        <g id="Assets" transform="translate(-473.000000, -903.000000)" fill="#292929">
            <g id="Group-4-Copy-7" transform="translate(79.000000, 148.000000)">
                <g id="icon_28" transform="translate(219.000000, 755.000000)">
                    <g id="search" transform="translate(175.000000, 0.000000)">
                        <path d="M11.9996155,19.9992309 C7.58154984,19.9992309 4,16.4176811 4,11.9996155 C4,7.58154984 7.58154984,4 11.9996155,4 C16.4176811,4 19.9992309,7.58154984 19.9992309,11.9996155 C19.9992309,16.4176811 16.4176811,19.9992309 11.9996155,19.9992309 Z M12,18 C15.3137085,18 18,15.3137085 18,12 C18,8.6862915 15.3137085,6 12,6 C8.6862915,6 6,8.6862915 6,12 C6,15.3137085 8.6862915,18 12,18 Z M17.9498234,19.465715 C17.5633216,19.0704365 17.5660426,18.4339574 17.9577614,18.0422386 L18.1039845,17.8960155 C18.4948703,17.5051297 19.1197117,17.5032132 19.5115693,17.9039691 L23.5501766,22.034285 C23.9366784,22.4295635 23.9339574,23.0660426 23.5422386,23.4577614 L23.3960155,23.6039845 C23.0051297,23.9948703 22.3802883,23.9967868 21.9884307,23.5960309 L17.9498234,19.465715 Z" id="search-copy"></path>
                    </g>
                </g>
            </g>
        </g>
    </g>
</svg>