<?xml version="1.0" encoding="UTF-8"?><svg xmlns="http://www.w3.org/2000/svg" xmlns:xlink="http://www.w3.org/1999/xlink" version="1.1" id="Layer_1" x="0px" y="0px" viewBox="0 0 48 48" xml:space="preserve"><path d="M39 39.079H9a3 3 0 0 1-3-3V9a3 3 0 0 1 3-3h30a3 3 0 0 1 3 3v27.079a3 3 0 0 1-3 3z" fill="#FF8F00"/><path d="M39 42H9a3 3 0 0 1-3-3V14a3 3 0 0 1 3-3h30a3 3 0 0 1 3 3v25a3 3 0 0 1-3 3z" fill="#DD2C00"/><circle cx="15" cy="17" r="2" fill="#B71C1C"/><circle cx="33" cy="17" r="2" fill="#B71C1C"/><path d="M33 17c0 4.971-4.029 9-9 9s-9-4.029-9-9" fill="none" stroke="#FFF" stroke-width="2" stroke-linecap="round" stroke-miterlimit="10"/><metadata><rdf:RDF xmlns:rdf="http://www.w3.org/1999/02/22-rdf-syntax-ns#" xmlns:rdfs="http://www.w3.org/2000/01/rdf-schema#" xmlns:dc="http://purl.org/dc/elements/1.1/"><rdf:Description about="https://iconscout.com/legal#licenses" dc:title="aliexpress" dc:description="aliexpress" dc:publisher="Iconscout" dc:date="2017-12-15" dc:format="image/svg+xml" dc:language="en"><dc:creator><rdf:Bag><rdf:li>Icons8</rdf:li></rdf:Bag></dc:creator></rdf:Description></rdf:RDF></metadata></svg>