<?xml version="1.0" encoding="UTF-8" standalone="no"?>
<svg width="56px" height="50px" viewBox="0 0 56 50" version="1.1" xmlns="http://www.w3.org/2000/svg" xmlns:xlink="http://www.w3.org/1999/xlink">
    <!-- Generator: sketchtool 39.1 (31720) - http://www.bohemiancoding.com/sketch -->
    <title>016C75F3-2337-410B-A273-E137BD9EA07B</title>
    <desc>Created with sketchtool.</desc>
    <defs></defs>
    <g id="extention" stroke="none" stroke-width="1" fill="none" fill-rule="evenodd" opacity="0.0599999987">
        <g id="extension_UI_Refresh_workflow" transform="translate(-826.000000, -3353.000000)" fill="#000000">
            <g id="search" transform="translate(355.000000, 2837.000000)">
                <g id="storewithnologo" transform="translate(417.000000, 478.000000)">
                    <g id="icon_defaultstore" transform="translate(54.000000, 38.000000)">
                        <path d="M52.5976664,1.5275 C52.2853359,0.688 51.2883002,0 50.3795648,0 L5.61387575,0 C4.70514033,0 3.7081047,0.688 3.3957742,1.5275 L0,10.649 C0,13.363 3.14247871,15.561 7.01759697,15.561 C10.8664775,15.561 13.9847367,13.389 14.0311574,10.701 C14.0750552,13.389 17.1933144,15.561 21.0416903,15.561 C24.2285714,15.561 27.6611794,13.8665 28.0002523,11.2695 C28.3393251,13.8645 31.7719331,15.561 34.9583097,15.561 C38.8071902,15.561 41.9254494,13.389 41.9688426,10.701 C42.0152633,13.389 45.1335225,15.561 48.982403,15.561 C52.8575213,15.561 56,13.363 56,10.649 L52.5976664,1.5275 Z M41.9037791,15.81244 C39.2996416,18.6657147 34.9149227,18.5922487 34.9149227,18.5922487 C30.0012692,18.7355591 27.6126602,15.9045312 27.6126602,15.9045312 C26.1790994,17.5388911 23.7707171,18.6119086 21.0459628,18.6119086 C18.0898614,18.6119086 15.5460324,17.3976501 14.1772289,15.561 C12.8104028,17.3997196 10.2665737,18.6119086 7.3109667,18.6119086 C6.86409117,18.6119086 6.42660794,18.5829361 6,18.5270606 L6.00395465,19.4536635 L6.00395465,48.3164903 C6.00395465,49.2430932 6.73062171,50 7.62091244,50 L48.2401181,50 C49.1304088,50 49.9945,49.3739869 49.9945,48.4468666 L49.9945,18.4396257 C49.5718467,18.4908449 48.9969394,18.6119086 48.5505582,18.6119086 C45.7738991,18.6119086 43.326959,17.4985365 41.9037791,15.81244 Z M13,25 L19,25 L19,31 L13,31 L13,25 Z M13,37 L19,37 L19,43 L13,43 L13,37 Z M37,25 L43,25 L43,31 L37,31 L37,25 Z M37,37 L43,37 L43,43 L37,43 L37,37 Z M25,25 L31,25 L31,31 L25,31 L25,25 Z M25,37 L31,37 L31,43 L25,43 L25,37 Z"></path>
                    </g>
                </g>
            </g>
        </g>
    </g>
</svg>