<?xml version="1.0" encoding="utf-8"?>
<!-- Svg Vector Icons : http://www.onlinewebfonts.com/icon -->
<!DOCTYPE svg PUBLIC "-//W3C//DTD SVG 1.1//EN" "http://www.w3.org/Graphics/SVG/1.1/DTD/svg11.dtd">
<svg version="1.1" xmlns="http://www.w3.org/2000/svg" xmlns:xlink="http://www.w3.org/1999/xlink" x="0px" y="0px" viewBox="0 0 1000 1000" enable-background="new 0 0 1000 1000" xml:space="preserve">
<metadata> Svg Vector Icons : http://www.onlinewebfonts.com/icon </metadata>
<g><g transform="translate(0.000000,512.000000) scale(0.100000,-0.100000)"><path d="M4289,4992.6c-647.8-132.2-1126.9-655.5-1197.9-1307.1c-11.5-107.3-17.2-120.7-53.7-120.7c-23,0-350.7-19.2-726.4-42.2l-684.2-42.2l-9.6-69c-23-157.2-688-7725.7-678.5-7733.4c7.7-7.7,6154.1-438.9,6468.5-452.3l99.6-5.8l415.9,540.5l414,540.5H8699c323.9,0,362.2,3.8,362.2,32.6c0,26.8-253,2188.7-745.6,6357.3c-72.8,619.1-138,1130.8-143.7,1136.5c-5.7,5.7-49.8-3.8-99.6-21.1c-116.9-40.3-143.7-38.3-295.2,9.6c-111.1,36.4-153.3,38.3-392.9,28.8c-147.6-7.7-308.6-17.2-356.5-23l-86.3-11.5l-24.9,105.4c-74.7,335.4-345,661.2-691.9,837.5c-237.7,120.7-323.9,139.9-672.7,145.7c-256.8,3.8-339.2,13.4-433.2,44.1C4881.2,5023.3,4538.2,5042.5,4289,4992.6z M4549.7,4513.5c-208.9-208.9-345-484.9-369.9-747.5l-11.5-120.7l-116.9-9.6c-63.3-7.7-222.3-17.3-350.7-24.9c-270.2-15.3-258.7-24.9-207,170.6c99.7,381.4,448.5,701.5,895,818.4c76.7,19.2,172.5,36.4,212.7,36.4l72.8,1.9L4549.7,4513.5z M5994.7,4486.7c260.6-99.7,498.3-358.4,571.2-617.1l19.2-69l-116.9-13.4c-63.3-5.8-168.7-11.5-231.9-11.5h-118.8l-32.6,138c-40.3,176.3-141.8,387.1-251.1,530.9l-86.2,113.1l74.7-17.3C5864.4,4530.7,5941.1,4505.8,5994.7,4486.7z M5314.4,4417.7c138-97.7,254.9-235.7,323.9-381.4c47.9-99.7,99.7-274.1,86.3-289.4c-9.6-7.7-1192.1-86.3-1199.8-78.6c-17.2,17.3,44.1,251.1,93.9,354.6c74.7,157.2,254.9,339.2,417.8,419.7c67.1,34.5,130.3,61.3,139.9,61.3C5186,4503.9,5249.2,4465.6,5314.4,4417.7z M7892.2,3551.4c3.9-3.8,69-1608,143.7-3561L8170.1-3563l-312.4-408.2c-172.5-224.2-329.7-423.6-346.9-442.7c-34.5-34.5-34.5-26.8-26.8,191.7c3.8,124.6,32.6,1813.1,63.2,3752.7c32.6,1939.6,63.3,3656.8,69,3815.9l11.5,289.4l126.5-36.4C7825.1,3578.2,7886.4,3557.1,7892.2,3551.4z M4105,3062.6c5.8-24.9,32.6-241.5,59.4-483c46-421.6,47.9-440.8,15.3-490.6c-184-281.7-998.5-1397.2-1015.8-1389.5c-13.4,3.8-253,170.6-532.8,368c-339.2,239.6-506,369.9-502.1,389.1c3.8,15.3,233.8,345,509.8,732.1c343.1,483,513.6,707.2,544.3,714.9c180.2,46,854.8,197.4,879.7,199.3C4083.9,3104.8,4099.3,3087.6,4105,3062.6z"/><path d="M3503.2,2756c-116.9-59.4-172.5-147.6-172.5-272.2c0-337.3,454.2-423.6,586.5-113.1c36.4,86.2,32.6,153.3-13.4,247.2C3829,2773.2,3654.6,2832.6,3503.2,2756z"/></g></g>
</svg>