<?xml version="1.0" encoding="UTF-8"?><svg xmlns="http://www.w3.org/2000/svg" xmlns:xlink="http://www.w3.org/1999/xlink" version="1.1" id="Layer_1" x="0px" y="0px" viewBox="0 0 16 16" xml:space="preserve"><path d="M11.937 7.989V3.943C11.937 2.655 10.766 1 8.375 1S4.766 2.081 4.25 3.943c0 0 1.523.322 2.25.368.258-.782.539-1.104 1.5-1.104 1.43 0 1.5 1.104 1.5 2.207-4.594.184-6 1.425-6 3.311 0 1.471 1.664 2.575 3 2.575s2.109-.23 3-1.104C9.922 10.84 11 11.3 11 11.3l1.5-1.471s-.563-1.265-.563-1.84zM7.623 9.645c-.539 0-1.098-.322-1.125-1.471-.023-.989 1.688-1.471 3-1.471.093 2.068-1.125 2.942-1.875 2.942z" fill="#455A64"/><path d="M14.521 15.337a.5.5 0 0 1-.179-.967c.305-.117.55-.938.631-1.739-.628-.103-1.626-.152-2.055.276a.5.5 0 0 1-.707-.707c1.042-1.043 3.176-.52 3.415-.456a.499.499 0 0 1 .373.495c-.011.433-.123 2.614-1.3 3.064a.477.477 0 0 1-.178.034z" fill="#FF9800" id="XMLID_3183_"/><path d="M7.429 15.5c-2.947 0-5.261-.928-7.28-2.916a.5.5 0 1 1 .702-.713C2.71 13.703 4.767 13.999 7.498 14c2.295-.012 4.304.017 6.14-.943a.5.5 0 0 1 .463.887c-1.98 1.035-4.139 1.544-6.598 1.557l-.074-.001z" fill="#FF9800" id="XMLID_2_"/><metadata><rdf:RDF xmlns:rdf="http://www.w3.org/1999/02/22-rdf-syntax-ns#" xmlns:rdfs="http://www.w3.org/2000/01/rdf-schema#" xmlns:dc="http://purl.org/dc/elements/1.1/"><rdf:Description about="https://iconscout.com/legal#licenses" dc:title="amazon,logo,color,e" dc:description="amazon,logo,color,e" dc:publisher="Iconscout" dc:date="2018-02-17" dc:format="image/svg+xml" dc:language="en"><dc:creator><rdf:Bag><rdf:li>Pixel Icons</rdf:li></rdf:Bag></dc:creator></rdf:Description></rdf:RDF></metadata></svg>